G04 ---------------------------- Layer name :BOTTOM LAYER*
G04 EasyEDA v5.7.24, Sat, 01 Sep 2018 15:29:15 GMT*
G04 70d3823de7e84894a96469fe6f11b24c*
G04 Gerber Generator version 0.2*
G04 Scale: 100 percent, Rotated: No, Reflected: No *
G04 Dimensions in inches *
G04 leading zeros omitted , absolute positions ,2 integer and 4 decimal *
%FSLAX24Y24*%
%MOIN*%
G90*
G70D02*

%ADD16R,0.060500X0.160500*%
%ADD18R,0.062000X0.062000*%
%ADD19C,0.062000*%
%ADD20C,0.074000*%
%ADD21R,0.098425X0.078740*%
%ADD22C,0.078740*%

%LPD*%
G54D16*
G01X2750Y16850D03*
G01X750Y16850D03*
G54D18*
G01X18950Y1750D03*
G01X16950Y1750D03*
G54D19*
G01X17950Y1750D03*
G54D20*
G01X21800Y14750D03*
G01X20800Y14750D03*
G01X19800Y14750D03*
G01X18800Y14750D03*
G01X17800Y14750D03*
G01X16800Y14750D03*
G01X15800Y14750D03*
G01X14800Y14750D03*
G01X13800Y14750D03*
G01X12800Y14750D03*
G01X11800Y14750D03*
G01X10800Y14750D03*
G01X10800Y8750D03*
G01X11800Y8750D03*
G01X12800Y8750D03*
G01X13800Y8750D03*
G01X14800Y8750D03*
G01X15800Y8750D03*
G01X16800Y8750D03*
G01X17800Y8750D03*
G01X18800Y8750D03*
G01X19800Y8750D03*
G01X20800Y8750D03*
G01X21800Y8750D03*
G01X13239Y9880D03*
G01X14239Y9880D03*
G01X18360Y9880D03*
G01X17360Y9880D03*
G54D18*
G01X14800Y16600D03*
G54D19*
G01X15800Y16600D03*
G01X16800Y16600D03*
G01X17800Y16600D03*
G54D21*
G01X20860Y3490D03*
G54D18*
G01X23850Y1250D03*
G54D19*
G01X24850Y1250D03*
G54D22*
G01X20761Y5490D02*
G01X20958Y5490D01*
G01X20761Y4490D02*
G01X20958Y4490D01*
M00*
M02*
