;PTH Drill file created by EasyEDA 
M48
INCH,LZ
;Holesize 1 = 0.030 INCH
T01C0.030
;Holesize 2 = 0.035 INCH
T02C0.035
;Holesize 3 = 0.051 INCH
T03C0.051
%
G05
G90
T01
X021800Y014750
X020800Y014750
X019800Y014750
X018800Y014750
X017800Y014750
X016800Y014750
X015800Y014750
X014800Y014750
X013800Y014750
X012800Y014750
X011800Y014750
X010800Y014750
X010800Y008750
X011800Y008750
X012800Y008750
X013800Y008750
X014800Y008750
X015800Y008750
X016800Y008750
X017800Y008750
X018800Y008750
X019800Y008750
X020800Y008750
X021800Y008750
X013239Y009880
X014239Y009880
X018360Y009880
X017360Y009880
T02
X018950Y001750
X016950Y001750
X017950Y001750
X014800Y016600
X015800Y016600
X016800Y016600
X017800Y016600
X023850Y001250
X024850Y001250
T03
X020860Y003490
X020860Y005490
X020860Y004490
M30
