G04 ---------------------------- Layer name :TOP SOLDER LAYER*
G04 EasyEDA v5.7.24, Sat, 01 Sep 2018 15:29:15 GMT*
G04 70d3823de7e84894a96469fe6f11b24c*
G04 Gerber Generator version 0.2*
G04 Scale: 100 percent, Rotated: No, Reflected: No *
G04 Dimensions in inches *
G04 leading zeros omitted , absolute positions ,2 integer and 4 decimal *
%FSLAX24Y24*%
%MOIN*%
G90*
G70D02*

%ADD13R,0.070992X0.070992*%
%ADD14R,0.078866X0.082803*%
%ADD15R,0.070992X0.145800*%
%ADD16R,0.068500X0.168500*%
%ADD17R,0.057212X0.047370*%
%ADD18R,0.070000X0.070000*%
%ADD19C,0.070000*%
%ADD20C,0.082000*%
%ADD21R,0.106425X0.086740*%
%ADD22C,0.086740*%

%LPD*%
G54D22*
G01X20761Y5490D02*
G01X20958Y5490D01*
G01X20761Y4490D02*
G01X20958Y4490D01*
G54D13*
G01X25793Y3273D03*
G01X25793Y7526D03*
G54D14*
G01X23903Y6384D03*
G01X23903Y5400D03*
G01X23903Y4414D03*
G54D18*
G01X18950Y1750D03*
G01X16950Y1750D03*
G54D19*
G01X17950Y1750D03*
G54D15*
G01X740Y4040D03*
G01X1740Y4040D03*
G01X2740Y4040D03*
G01X3740Y4040D03*
G01X4740Y4040D03*
G01X5740Y4040D03*
G01X6740Y4040D03*
G01X7740Y4040D03*
G01X8739Y4040D03*
G01X700Y15240D03*
G01X1740Y15240D03*
G01X2780Y15240D03*
G54D16*
G01X1750Y16850D03*
G01X2750Y16850D03*
G01X750Y16850D03*
G54D17*
G01X12800Y6556D03*
G01X12800Y7343D03*
G01X11800Y6606D03*
G01X11800Y7393D03*
G01X10800Y6906D03*
G01X10800Y7693D03*
G01X10300Y4393D03*
G01X10300Y3606D03*
G54D20*
G01X21800Y14750D03*
G01X20800Y14750D03*
G01X19800Y14750D03*
G01X18800Y14750D03*
G01X17800Y14750D03*
G01X16800Y14750D03*
G01X15800Y14750D03*
G01X14800Y14750D03*
G01X13800Y14750D03*
G01X12800Y14750D03*
G01X11800Y14750D03*
G01X10800Y14750D03*
G01X10800Y8750D03*
G01X11800Y8750D03*
G01X12800Y8750D03*
G01X13800Y8750D03*
G01X14800Y8750D03*
G01X15800Y8750D03*
G01X16800Y8750D03*
G01X17800Y8750D03*
G01X18800Y8750D03*
G01X19800Y8750D03*
G01X20800Y8750D03*
G01X21800Y8750D03*
G01X13239Y9880D03*
G01X14239Y9880D03*
G01X18360Y9880D03*
G01X17360Y9880D03*
G54D18*
G01X14800Y16600D03*
G54D19*
G01X15800Y16600D03*
G01X16800Y16600D03*
G01X17800Y16600D03*
G54D21*
G01X20860Y3490D03*
G54D18*
G01X23850Y1250D03*
G54D19*
G01X24850Y1250D03*
M00*
M02*
