<?xml version="1.0" encoding="utf-8"?>
<!-- Generator: Adobe Illustrator 22.0.0, SVG Export Plug-In . SVG Version: 6.00 Build 0)  -->
<svg version="1.1" id="Layer_1" xmlns="http://www.w3.org/2000/svg" xmlns:xlink="http://www.w3.org/1999/xlink" x="0px" y="0px"
	 viewBox="0 0 914.7 340.7" style="enable-background:new 0 0 914.7 340.7;" xml:space="preserve">
<style type="text/css">
	.st0{fill:none;stroke:#000000;stroke-width:0.9;}
	.st1{fill:none;stroke:#0F1010;stroke-width:0.9;}
	.st2{fill:none;stroke:#0B0D0C;stroke-width:0.9;}
	.st3{fill:none;stroke:#110F33;stroke-width:0.9;}
	.st4{opacity:0.8;fill:none;stroke:#272D7D;stroke-width:0.8;enable-background:new    ;}
	.st5{fill:none;stroke:#190E34;stroke-width:0.9;}
	.st6{opacity:0.8;fill:none;stroke:#091417;enable-background:new    ;}
	.st7{fill:none;stroke:#02512D;stroke-miterlimit:10;}
	.st8{fill:none;stroke:#02512D;stroke-linecap:round;stroke-miterlimit:10;}
	.st9{fill:none;stroke:#271F1F;stroke-miterlimit:10;}
	.st10{fill:none;stroke:#05080B;stroke-miterlimit:10;}
	.st11{fill:none;stroke:#4B4099;stroke-miterlimit:10;}
	.st12{fill:none;stroke:#0F103C;stroke-miterlimit:10;}
	.st13{fill:none;stroke:#104A24;stroke-miterlimit:10;}
	.st14{fill:none;stroke:#030303;stroke-width:0.9;}
	.st15{fill:none;stroke:#9E2065;stroke-width:2;stroke-miterlimit:10;}
</style>
<g transform="translate(22.5000185, 22.5000185) ">
	<polygon class="st0" points="-4.5,-4.5 16.8,-4.5 16.8,4 38,4 38,-4.5 52.2,-4.5 52.2,4 66.4,4 66.4,-4.5 80.5,-4.5 80.5,4 94.7,4 
		94.7,-4.5 108.9,-4.5 108.9,4 123.1,4 123.1,-4.5 137.2,-4.5 137.2,4 151.4,4 151.4,-4.5 165.6,-4.5 165.6,4 179.8,4 179.8,-4.5 
		193.9,-4.5 193.9,4 208.1,4 208.1,-4.5 222.3,-4.5 222.3,4 236.4,4 236.4,-4.5 250.6,-4.5 250.6,4 264.8,4 264.8,-4.5 279,-4.5 
		279,4 300.2,4 300.2,-4.5 321.5,-4.5 321.5,11.1 313,11.1 313,26.7 321.5,26.7 321.5,42.3 313,42.3 313,57.9 321.5,57.9 
		321.5,73.5 300.2,73.5 300.2,64.9 279,64.9 279,73.5 264.8,73.5 264.8,64.9 250.6,64.9 250.6,73.5 236.4,73.5 236.4,64.9 
		222.3,64.9 222.3,73.5 208.1,73.5 208.1,64.9 193.9,64.9 193.9,73.5 179.8,73.5 179.8,64.9 165.6,64.9 165.6,73.5 151.4,73.5 
		151.4,64.9 137.2,64.9 137.2,73.5 123.1,73.5 123.1,64.9 108.9,64.9 108.9,73.5 94.7,73.5 94.7,64.9 80.5,64.9 80.5,73.5 
		66.4,73.5 66.4,64.9 52.2,64.9 52.2,73.5 38,73.5 38,64.9 16.8,64.9 16.8,73.5 -4.5,73.5 -4.5,57.9 4,57.9 4,42.3 -4.5,42.3 
		-4.5,26.7 4,26.7 4,11.1 -4.5,11.1 	"/>
</g>
<g transform="translate(429.9806685, 22.5000185) ">
	<polygon class="st1" points="-86,-4.5 -64.7,-4.5 -64.7,4 -43.5,4 -43.5,-4.5 -29.3,-4.5 -29.3,4 -15.1,4 -15.1,-4.5 -1,-4.5 -1,4 
		13.2,4 13.2,-4.5 27.4,-4.5 27.4,4 41.6,4 41.6,-4.5 55.7,-4.5 55.7,4 69.9,4 69.9,-4.5 84.1,-4.5 84.1,4 98.3,4 98.3,-4.5 
		112.4,-4.5 112.4,4 126.6,4 126.6,-4.5 140.8,-4.5 140.8,4 154.9,4 154.9,-4.5 169.1,-4.5 169.1,4 183.3,4 183.3,-4.5 197.5,-4.5 
		197.5,4 218.7,4 218.7,-4.5 240,-4.5 240,11.1 231.5,11.1 231.5,26.7 240,26.7 240,42.3 231.5,42.3 231.5,57.9 240,57.9 240,73.5 
		218.7,73.5 218.7,64.9 197.5,64.9 197.5,73.5 183.3,73.5 183.3,64.9 169.1,64.9 169.1,73.5 154.9,73.5 154.9,64.9 140.8,64.9 
		140.8,73.5 126.6,73.5 126.6,64.9 112.4,64.9 112.4,73.5 98.3,73.5 98.3,64.9 84.1,64.9 84.1,73.5 69.9,73.5 69.9,64.9 55.7,64.9 
		55.7,73.5 41.6,73.5 41.6,64.9 27.4,64.9 27.4,73.5 13.2,73.5 13.2,64.9 -1,64.9 -1,73.5 -15.1,73.5 -15.1,64.9 -29.3,64.9 
		-29.3,73.5 -43.5,73.5 -43.5,64.9 -64.7,64.9 -64.7,73.5 -86,73.5 -86,57.9 -77.5,57.9 -77.5,42.3 -86,42.3 -86,26.7 -77.5,26.7 
		-77.5,11.1 -86,11.1 	"/>
</g>
<g transform="translate(837.4613185, 22.5000185) ">
	<polygon class="st2" points="-159,-4.5 -149.8,-4.5 -149.8,4 -132.1,4 -132.1,-4.5 -117.9,-4.5 -117.9,4 -103.7,4 -103.7,-4.5 
		-89.5,-4.5 -89.5,4 -75.4,4 -75.4,-4.5 -61.2,-4.5 -61.2,4 -47,4 -47,-4.5 -32.8,-4.5 -32.8,4 -18.7,4 -18.7,-4.5 -4.5,-4.5 
		-4.5,4 9.7,4 9.7,-4.5 23.8,-4.5 23.8,4 41.6,4 41.6,-4.5 50.8,-4.5 50.8,11.1 59.3,11.1 59.3,26.7 50.8,26.7 50.8,42.3 59.3,42.3 
		59.3,57.9 50.8,57.9 50.8,73.5 41.6,73.5 41.6,64.9 23.8,64.9 23.8,73.5 9.7,73.5 9.7,64.9 -4.5,64.9 -4.5,73.5 -18.7,73.5 
		-18.7,64.9 -32.8,64.9 -32.8,73.5 -47,73.5 -47,64.9 -61.2,64.9 -61.2,73.5 -75.4,73.5 -75.4,64.9 -89.5,64.9 -89.5,73.5 
		-103.7,73.5 -103.7,64.9 -117.9,64.9 -117.9,73.5 -132.1,73.5 -132.1,64.9 -149.8,64.9 -149.8,73.5 -159,73.5 -159,57.9 
		-167.5,57.9 -167.5,42.3 -159,42.3 -159,26.7 -167.5,26.7 -167.5,11.1 -159,11.1 	"/>
</g>
<g transform="translate(837.4613185, 119.9410435) ">
	<polygon class="st2" points="-159,-24 -149.8,-24 -149.8,-15.5 -132.1,-15.5 -132.1,-24 -117.9,-24 -117.9,-15.5 -103.7,-15.5 
		-103.7,-24 -89.5,-24 -89.5,-15.5 -75.4,-15.5 -75.4,-24 -61.2,-24 -61.2,-15.5 -47,-15.5 -47,-24 -32.8,-24 -32.8,-15.5 
		-18.7,-15.5 -18.7,-24 -4.5,-24 -4.5,-15.5 9.7,-15.5 9.7,-24 23.8,-24 23.8,-15.5 41.6,-15.5 41.6,-24 50.8,-24 50.8,-8.4 
		59.3,-8.4 59.3,7.2 50.8,7.2 50.8,22.8 59.3,22.8 59.3,38.4 50.8,38.4 50.8,54 41.6,54 41.6,45.5 23.8,45.5 23.8,54 9.7,54 
		9.7,45.5 -4.5,45.5 -4.5,54 -18.7,54 -18.7,45.5 -32.8,45.5 -32.8,54 -47,54 -47,45.5 -61.2,45.5 -61.2,54 -75.4,54 -75.4,45.5 
		-89.5,45.5 -89.5,54 -103.7,54 -103.7,45.5 -117.9,45.5 -117.9,54 -132.1,54 -132.1,45.5 -149.8,45.5 -149.8,54 -159,54 -159,38.4 
		-167.5,38.4 -167.5,22.8 -159,22.8 -159,7.2 -167.5,7.2 -167.5,-8.4 -159,-8.4 	"/>
</g>
<g transform="translate(22.5000185, 119.9410435) ">
	<polygon class="st0" points="4,-15.5 16.8,-15.5 16.8,-24 38,-24 38,-15.5 52.2,-15.5 52.2,-24 66.4,-24 66.4,-15.5 80.5,-15.5 
		80.5,-24 94.7,-24 94.7,-15.5 108.9,-15.5 108.9,-24 123.1,-24 123.1,-15.5 137.2,-15.5 137.2,-24 151.4,-24 151.4,-15.5 
		165.6,-15.5 165.6,-24 179.8,-24 179.8,-15.5 193.9,-15.5 193.9,-24 208.1,-24 208.1,-15.5 222.3,-15.5 222.3,-24 236.4,-24 
		236.4,-15.5 250.6,-15.5 250.6,-24 264.8,-24 264.8,-15.5 279,-15.5 279,-24 300.2,-24 300.2,-15.5 313,-15.5 313,-6.3 321.5,-6.3 
		321.5,11.4 313,11.4 313,25.6 321.5,25.6 321.5,39.8 313,39.8 313,54 321.5,54 321.5,68.1 313,68.1 313,82.3 321.5,82.3 
		321.5,96.5 313,96.5 313,110.7 321.5,110.7 321.5,124.8 313,124.8 313,139 321.5,139 321.5,153.2 313,153.2 313,167.4 321.5,167.4 
		321.5,185.1 313,185.1 313,194.3 300.2,194.3 300.2,202.8 279,202.8 279,194.3 264.8,194.3 264.8,202.8 250.6,202.8 250.6,194.3 
		236.4,194.3 236.4,202.8 222.3,202.8 222.3,194.3 208.1,194.3 208.1,202.8 193.9,202.8 193.9,194.3 179.8,194.3 179.8,202.8 
		165.6,202.8 165.6,194.3 151.4,194.3 151.4,202.8 137.2,202.8 137.2,194.3 123.1,194.3 123.1,202.8 108.9,202.8 108.9,194.3 
		94.7,194.3 94.7,202.8 80.5,202.8 80.5,194.3 66.4,194.3 66.4,202.8 52.2,202.8 52.2,194.3 38,194.3 38,202.8 16.8,202.8 
		16.8,194.3 4,194.3 4,185.1 -4.5,185.1 -4.5,167.4 4,167.4 4,153.2 -4.5,153.2 -4.5,139 4,139 4,124.8 -4.5,124.8 -4.5,110.7 
		4,110.7 4,96.5 -4.5,96.5 -4.5,82.3 4,82.3 4,68.1 -4.5,68.1 -4.5,54 4,54 4,39.8 -4.5,39.8 -4.5,25.6 4,25.6 4,11.4 -4.5,11.4 
		-4.5,-6.3 4,-6.3 	"/>
</g>
<g transform="translate(429.9806685, 119.9410435) ">
	<polygon class="st3" points="-77.5,-15.5 -64.7,-15.5 -64.7,-24 -43.5,-24 -43.5,-15.5 -29.3,-15.5 -29.3,-24 -15.1,-24 
		-15.1,-15.5 -1,-15.5 -1,-24 13.2,-24 13.2,-15.5 27.4,-15.5 27.4,-24 41.6,-24 41.6,-15.5 55.7,-15.5 55.7,-24 69.9,-24 
		69.9,-15.5 84.1,-15.5 84.1,-24 98.3,-24 98.3,-15.5 112.4,-15.5 112.4,-24 126.6,-24 126.6,-15.5 140.8,-15.5 140.8,-24 
		154.9,-24 154.9,-15.5 169.1,-15.5 169.1,-24 183.3,-24 183.3,-15.5 197.5,-15.5 197.5,-24 218.7,-24 218.7,-15.5 231.5,-15.5 
		231.5,-6.3 240,-6.3 240,11.4 231.5,11.4 231.5,25.6 240,25.6 240,39.8 231.5,39.8 231.5,54 240,54 240,68.1 231.5,68.1 
		231.5,82.3 240,82.3 240,96.5 231.5,96.5 231.5,110.7 240,110.7 240,124.8 231.5,124.8 231.5,139 240,139 240,153.2 231.5,153.2 
		231.5,167.4 240,167.4 240,185.1 231.5,185.1 231.5,194.3 218.7,194.3 218.7,202.8 197.5,202.8 197.5,194.3 183.3,194.3 
		183.3,202.8 169.1,202.8 169.1,194.3 154.9,194.3 154.9,202.8 140.8,202.8 140.8,194.3 126.6,194.3 126.6,202.8 112.4,202.8 
		112.4,194.3 98.3,194.3 98.3,202.8 84.1,202.8 84.1,194.3 69.9,194.3 69.9,202.8 55.7,202.8 55.7,194.3 41.6,194.3 41.6,202.8 
		27.4,202.8 27.4,194.3 13.2,194.3 13.2,202.8 -1,202.8 -1,194.3 -15.1,194.3 -15.1,202.8 -29.3,202.8 -29.3,194.3 -43.5,194.3 
		-43.5,202.8 -64.7,202.8 -64.7,194.3 -77.5,194.3 -77.5,185.1 -86,185.1 -86,167.4 -77.5,167.4 -77.5,153.2 -86,153.2 -86,139 
		-77.5,139 -77.5,124.8 -86,124.8 -86,110.7 -77.5,110.7 -77.5,96.5 -86,96.5 -86,82.3 -77.5,82.3 -77.5,68.1 -86,68.1 -86,54 
		-77.5,54 -77.5,39.8 -86,39.8 -86,25.6 -77.5,25.6 -77.5,11.4 -86,11.4 -86,-6.3 -77.5,-6.3 	"/>
</g>
<rect x="43.9" y="130.5" class="st0" width="277.8" height="159.2"/>
<rect x="429.8" y="52.6" class="st0" width="38.5" height="13.3"/>
<g>
	<path d="M370.5,306.3v-11.2h6.3v1.2H373v3.8h2.5v1.3H373v5L370.5,306.3L370.5,306.3z"/>
	<path d="M379.3,306.3v-11.2h5c0.7,0,1.3,0.2,1.8,0.7s0.7,1.1,0.7,1.8v1.2c0,0.7-0.2,1.3-0.7,1.8s-1.1,0.7-1.8,0.7h-2.5v5H379.3z
		 M381.8,300.1h1.2c0.3,0,0.6-0.1,0.9-0.4c0.2-0.2,0.4-0.5,0.4-0.9v-1.2c0-0.3-0.1-0.6-0.4-0.9c-0.2-0.2-0.5-0.4-0.9-0.4h-1.2V300.1
		z"/>
	<path d="M394.3,295.1h2.5v7c0,1.2-0.4,2.2-1.3,3c-0.8,0.8-1.8,1.3-3,1.3h-3.2v-11.2h2.5v10h1.2c0.3,0,0.6-0.1,0.9-0.4
		c0.2-0.2,0.4-0.5,0.4-0.9V295.1z"/>
	<path d="M406.8,300.1h3.8v3.8c0,0.8-0.3,1.5-0.8,1.9s-1.1,0.6-1.7,0.6h-2.5c-0.7,0-1.3-0.2-1.8-0.7s-0.7-1.1-0.7-1.8v-6.2
		c0-0.7,0.2-1.3,0.7-1.8s1.1-0.7,1.8-0.7h2.5c1.6,0,2.4,0.8,2.5,2.5h-1.2c-0.1-0.8-0.5-1.3-1.2-1.3h-1.4c-0.3,0-0.6,0.1-0.9,0.4
		c-0.2,0.2-0.4,0.5-0.4,0.9v6.2c0,0.4,0.1,0.6,0.4,0.9c0.2,0.2,0.5,0.4,0.9,0.4c0.8,0,1.2-0.5,1.3-1.3v-2.5h-1.3L406.8,300.1
		L406.8,300.1z"/>
	<path d="M413,306.3v-11.2h5c0.7,0,1.3,0.2,1.8,0.7s0.7,1.1,0.7,1.8v0.7c0,0.6-0.2,1.1-0.6,1.6s-1,0.8-1.9,0.8h1.2
		c0.3,0,0.6,0.1,0.9,0.4s0.4,0.5,0.4,0.9v4.4H418v-3.8c0-0.3-0.1-0.6-0.4-0.9c-0.2-0.2-0.5-0.4-0.9-0.4h-1.2v5H413z M415.5,300.1
		h1.2c0.3,0,0.6-0.1,0.9-0.4c0.2-0.2,0.4-0.5,0.4-0.9v-1.2c0-0.3-0.1-0.6-0.4-0.9c-0.2-0.2-0.5-0.4-0.9-0.4h-1.2V300.1z"/>
	<path d="M425.5,295.1h2.5c0.7,0,1.3,0.2,1.8,0.7s0.7,1.1,0.7,1.8v6.2c0,0.7-0.2,1.3-0.7,1.8s-1.1,0.7-1.8,0.7h-2.5
		c-0.7,0-1.3-0.2-1.8-0.7s-0.7-1.1-0.7-1.8v-6.2c0-0.7,0.2-1.3,0.7-1.8C424.3,295.3,424.9,295.1,425.5,295.1z M425.5,297.6v6.2
		c0,0.3,0.1,0.6,0.4,0.9c0.2,0.2,0.5,0.4,0.9,0.4c0.3,0,0.6-0.1,0.9-0.4c0.2-0.2,0.4-0.5,0.4-0.9v-6.2c0-0.3-0.1-0.6-0.4-0.9
		c-0.2-0.2-0.5-0.4-0.9-0.4c-0.3,0-0.6,0.1-0.9,0.4C425.7,296.9,425.5,297.2,425.5,297.6z"/>
	<path d="M438.1,295.1h2.5v8.7c0,0.7-0.2,1.3-0.7,1.8s-1.1,0.7-1.8,0.7h-2.5c-0.7,0-1.3-0.2-1.8-0.7s-0.7-1.1-0.7-1.8v-8.7h2.5v8.7
		c0,0.3,0.1,0.6,0.4,0.9c0.2,0.2,0.5,0.4,0.9,0.4c0.3,0,0.6-0.1,0.9-0.4c0.2-0.2,0.4-0.5,0.4-0.9L438.1,295.1L438.1,295.1z"/>
	<path d="M443,306.3v-11.2h0.6l6.9,6.3v-6.3h1.3v11.2h-0.6l-6.9-6.3v6.3H443z"/>
	<path d="M454.3,306.3v-11.2h5c0.7,0,1.3,0.2,1.8,0.7s0.7,1.1,0.7,1.8v6.2c0,0.7-0.2,1.3-0.7,1.8s-1.1,0.7-1.8,0.7H454.3z
		 M456.8,305.1h1.2c0.3,0,0.6-0.1,0.9-0.4c0.2-0.2,0.4-0.5,0.4-0.9v-6.2c0-0.3-0.1-0.6-0.4-0.9c-0.2-0.2-0.5-0.4-0.9-0.4h-1.2V305.1
		z"/>
	<path d="M474.3,297.6h-1.2c-0.1-0.8-0.5-1.3-1.2-1.3c-0.4,0-0.8,0.1-1,0.3c-0.2,0.2-0.3,0.5-0.3,0.9c0,0.3,0.1,0.6,0.4,0.9l2.7,3
		c0.5,0.6,0.7,1.1,0.7,1.8v0.6c0,0.7-0.2,1.3-0.7,1.8s-1.1,0.7-1.8,0.7h-1.2c-0.8,0-1.5-0.2-1.9-0.6s-0.6-1-0.6-1.9h1.3
		c0,0.1,0,0.2,0,0.2c0,0.3,0.1,0.6,0.4,0.8s0.5,0.3,0.9,0.3s0.8-0.1,1-0.3s0.3-0.5,0.3-0.9c0-0.3-0.1-0.6-0.4-0.9l-2.7-3
		c-0.5-0.5-0.7-1.1-0.7-1.8v-0.6c0-0.7,0.2-1.3,0.7-1.8s1.1-0.7,1.8-0.7h1.2C473.4,295.1,474.2,295.9,474.3,297.6z"/>
	<path d="M478.1,306.3v-10h-2.5v-1.2h7.5v1.2h-2.5v10H478.1z"/>
	<path d="M484.3,306.3v-8.7c0-0.7,0.2-1.3,0.7-1.8s1.1-0.7,1.8-0.7h2.5c0.7,0,1.3,0.2,1.8,0.7s0.7,1.1,0.7,1.8v8.7h-2.5v-5h-2.5v5
		H484.3z M486.8,300.1h2.5v-2.5c0-0.3-0.1-0.6-0.4-0.9c-0.2-0.2-0.5-0.4-0.9-0.4c-0.3,0-0.6,0.1-0.9,0.4c-0.2,0.2-0.4,0.5-0.4,0.9
		L486.8,300.1L486.8,300.1z"/>
	<path d="M495.6,306.3v-10h-2.5v-1.2h7.5v1.2h-2.5v10H495.6z"/>
	<path d="M503.1,306.3v-11.2h2.5v11.2H503.1z"/>
	<path d="M511.8,295.1h2.5c0.7,0,1.3,0.2,1.8,0.7s0.7,1.1,0.7,1.8v6.2c0,0.7-0.2,1.3-0.7,1.8s-1.1,0.7-1.8,0.7h-2.5
		c-0.7,0-1.3-0.2-1.8-0.7s-0.7-1.1-0.7-1.8v-6.2c0-0.7,0.2-1.3,0.7-1.8S511.1,295.1,511.8,295.1z M511.8,297.6v6.2
		c0,0.3,0.1,0.6,0.4,0.9c0.2,0.2,0.5,0.4,0.9,0.4c0.3,0,0.6-0.1,0.9-0.4c0.2-0.2,0.4-0.5,0.4-0.9v-6.2c0-0.3-0.1-0.6-0.4-0.9
		c-0.2-0.2-0.5-0.4-0.9-0.4c-0.3,0-0.6,0.1-0.9,0.4C511.9,296.9,511.8,297.2,511.8,297.6z"/>
	<path d="M519.3,306.3v-11.2h0.6l6.9,6.3v-6.3h1.3v11.2h-0.6l-6.9-6.3v6.3H519.3z"/>
</g>
<g>
	<path d="M468,36.7c0.1-1.7,0.9-2.5,2.5-2.5h2.5c0.7,0,1.3,0.2,1.8,0.7s0.7,1.1,0.7,1.8v6.2c0,0.7-0.2,1.3-0.7,1.8s-1.1,0.7-1.8,0.7
		h-2.5c-1.6,0-2.4-0.8-2.5-2.5h1.2c0.1,0.8,0.5,1.3,1.2,1.3h1.3c0.3,0,0.6-0.1,0.9-0.4c0.2-0.2,0.4-0.5,0.4-0.9v-6.2
		c0-0.3-0.1-0.6-0.4-0.9c-0.2-0.2-0.5-0.4-0.9-0.4h-1.3c-0.7,0-1.2,0.4-1.2,1.3C469.2,36.7,468,36.7,468,36.7z"/>
	<path d="M465.5,34.2v11.2H463v-5h-2.5v5H458V34.2h2.5v5h2.5v-5H465.5z"/>
	<path d="M451.8,34.2v11.2h-0.6l-6.9-6.3v6.3H443V34.2h0.6l6.9,6.3v-6.3H451.8z"/>
	<path d="M440.5,34.2v8.7c0,0.7-0.2,1.3-0.7,1.8s-1.1,0.7-1.8,0.7h-2.5c-0.7,0-1.3-0.2-1.8-0.7s-0.7-1.1-0.7-1.8v-8.7h2.5v5h2.5v-5
		H440.5z M438,40.4h-2.5v2.5c0,0.3,0.1,0.6,0.4,0.9c0.2,0.2,0.5,0.4,0.9,0.4c0.3,0,0.6-0.1,0.9-0.4c0.2-0.2,0.4-0.5,0.4-0.9
		L438,40.4L438,40.4z"/>
	<path d="M425.5,45.4H423v-7c0-1.2,0.4-2.2,1.3-3c0.8-0.8,1.8-1.3,3-1.3h3.2v11.3H428v-10h-1.2c-0.3,0-0.6,0.1-0.9,0.4
		c-0.2,0.2-0.4,0.5-0.4,0.9V45.4z"/>
</g>
<g>
	<path d="M329,39.4v6.4c0,0.5-0.2,0.9-0.5,1.3c-0.4,0.4-0.8,0.5-1.3,0.5h-1.8c-0.5,0-0.9-0.2-1.3-0.5c-0.4-0.4-0.5-0.8-0.5-1.3v-6.4
		h1.8v3.7h1.8v-3.7H329z M327.1,44h-1.8v1.8c0,0.3,0.1,0.5,0.3,0.7s0.4,0.3,0.7,0.3c0.2,0,0.5-0.1,0.6-0.3s0.3-0.4,0.3-0.7L327.1,44
		L327.1,44z"/>
	<path d="M321.6,39.4v8.2h-0.4l-5.1-4.6v4.6h-0.9v-8.2h0.4l5.1,4.6v-4.6H321.6z"/>
	<path d="M312.5,39.4v7.3h1.8v0.9h-5.5v-0.9h1.8v-7.3H312.5z"/>
	<path d="M307.9,39.4v8.2h-4.6v-0.9h2.8v-2.8h-1.8V43h1.8v-2.7h-2.8v-0.9C303.3,39.4,307.9,39.4,307.9,39.4z"/>
	<path d="M301.5,39.4v8.2h-0.4L296,43v4.6h-0.9v-8.2h0.4l5.1,4.6v-4.6C300.6,39.4,301.5,39.4,301.5,39.4z"/>
	<path d="M293.2,39.4v8.2h-0.4l-5.1-4.6v4.6h-0.9v-8.2h0.4l5.1,4.6v-4.6H293.2z"/>
	<path d="M285,39.4v6.4c0,0.5-0.2,0.9-0.5,1.3c-0.4,0.4-0.8,0.5-1.3,0.5h-1.8c-0.5,0-0.9-0.2-1.3-0.5c-0.4-0.4-0.5-0.8-0.5-1.3v-6.4
		h1.8v3.7h1.8v-3.7H285z M283.1,44h-1.8v1.8c0,0.3,0.1,0.5,0.3,0.7s0.4,0.3,0.7,0.3c0.2,0,0.5-0.1,0.6-0.3s0.3-0.4,0.3-0.7L283.1,44
		L283.1,44z"/>
</g>
<g>
	<path d="M97,308.9v-13.6h0.6l6.5,6.5l6.5-6.5h1.6v13.6h-3v-8.3l-5.3,5.3l-5.3-5.3v8.3H97z"/>
	<path d="M116.7,308.9v-13.6h3v13.6H116.7z"/>
	<path d="M133.4,305.9c-0.1,2.1-1.2,3-3,3h-3c-0.8,0-1.6-0.3-2.1-0.9c-0.6-0.6-0.9-1.3-0.9-2.2v-7.5c0-0.8,0.3-1.6,0.9-2.1
		s1.3-0.9,2.2-0.9h3c1.9,0,2.9,1,3,3h-1.6c-0.1-1-0.6-1.6-1.6-1.6h-1.6c-0.4,0-0.8,0.1-1,0.4c-0.3,0.3-0.4,0.6-0.4,1v7.5
		c0,0.4,0.1,0.8,0.4,1c0.3,0.3,0.6,0.4,1,0.4h1.6c0.9,0,1.4-0.5,1.6-1.6h1.4v0.5L133.4,305.9L133.4,305.9z"/>
	<path d="M136.5,308.9v-13.6h3v6.1h3v-6.1h3v13.6h-3v-6.1h-3v6.1H136.5z"/>
	<path d="M148.5,308.9v-10.6c0-0.8,0.3-1.6,0.9-2.2c0.6-0.6,1.3-0.9,2.1-0.9h3c0.8,0,1.6,0.3,2.1,0.9c0.6,0.6,0.9,1.3,0.9,2.1v10.6
		h-3v-6h-3v6.1H148.5z M151.5,301.4h3v-3c0-0.4-0.1-0.8-0.4-1c-0.3-0.3-0.6-0.4-1-0.4s-0.8,0.1-1,0.4c-0.3,0.3-0.4,0.6-0.4,1v3
		H151.5z"/>
	<path d="M160.6,308.9v-13.6h7.5v1.6h-4.5v4.5h3v1.6h-3v4.5h4.5v1.6h-7.5V308.9z"/>
	<path d="M171.3,308.9v-13.6h3v12.1h4.5v1.6h-7.5V308.9z"/>
	<path d="M186.5,308.9v-13.6h6.1c0.8,0,1.6,0.3,2.1,0.9c0.6,0.6,0.9,1.3,0.9,2.1v7.5c0,0.8-0.3,1.6-0.9,2.1
		c-0.6,0.6-1.3,0.9-2.1,0.9h-6.1V308.9z M189.4,307.3h1.6c0.4,0,0.8-0.1,1-0.4c0.3-0.3,0.4-0.6,0.4-1v-7.5c0-0.4-0.1-0.8-0.4-1
		c-0.3-0.3-0.6-0.4-1-0.4h-1.6V307.3z"/>
	<path d="M198.5,308.9v-13.6h7.5v1.6h-4.5v4.5h3v1.6h-3v4.5h4.5v1.6h-7.5V308.9z"/>
	<path d="M209.2,308.9v-13.6h3v12.1h4.5v1.6h-7.5V308.9z"/>
	<path d="M219.7,308.9v-10.6c0-0.8,0.3-1.6,0.9-2.2c0.6-0.6,1.3-0.9,2.1-0.9h3c0.8,0,1.6,0.3,2.1,0.9c0.6,0.6,0.9,1.3,0.9,2.1v10.6
		h-2.9v-6h-3v6.1H219.7z M222.8,301.4h3v-3c0-0.4-0.1-0.8-0.4-1c-0.3-0.3-0.6-0.4-1-0.4s-0.8,0.1-1,0.4c-0.3,0.3-0.4,0.6-0.4,1v3
		H222.8z"/>
	<path d="M231.9,308.9v-13.6h0.6l8.4,7.5v-7.5h1.6v13.6h-0.6l-8.4-7.5v7.5H231.9z"/>
	<path d="M245.5,308.9v-13.6h7.5v1.6h-4.5v4.5h3v1.6h-3v4.5h4.5v1.6h-7.5V308.9z"/>
	<path d="M259.2,308.9v-6.1c-2.1-0.3-3-1.3-3-3v-4.5h3v4.5c0,0.4,0.1,0.8,0.4,1c0.3,0.3,0.6,0.4,1,0.4s0.8-0.1,1-0.4
		c0.3-0.3,0.4-0.6,0.4-1v-4.5h3v4.5c0,1.8-1,2.9-3,3v6.1H259.2z"/>
</g>
<path class="st4" d="M448.3,286.7h-73.5c-3.9,0-7-3.1-7-7v-87.8c0-3.8,3.1-6.9,6.9-6.9h73.7c3.8,0,6.9,3.1,6.9,6.9v87.8
	C455.4,283.6,452.2,286.7,448.3,286.7z"/>
<path class="st5" d="M371.9,274.2v-77.1c0,0,7.6-0.3,7.8-7.6h63.4c0,0-0.9,7.4,9,7.4"/>
<path class="st0" d="M451.6,196.8v77.4c0,0-7.6,0-7.8,9.1h-63.4c0,0,1.4-9.1-9.1-9.1"/>
<circle class="st6" cx="374.1" cy="191.1" r="2.9"/>
<circle class="st6" cx="449.3" cy="191.1" r="2.9"/>
<circle class="st6" cx="374.1" cy="281" r="2.9"/>
<circle class="st6" cx="450.1" cy="281" r="2.9"/>
<rect x="516.6" y="35.4" class="st0" width="131.9" height="41.7"/>
<path class="st0" d="M311.2,71.4h-7.5c-4,0-7.2-3.2-7.2-7.2s3.2-7.2,7.2-7.2h7.5c4,0,7.2,3.2,7.2,7.2S315.2,71.4,311.2,71.4z"/>
<line class="st0" x1="311.2" y1="71.4" x2="335.5" y2="71.4"/>
<line class="st0" x1="318.3" y1="65.8" x2="335.5" y2="65.8"/>
<path class="st7" d="M648.7,314.2c0,0,4.3-9.2,12.8-9.2"/>
<path class="st7" d="M627.5,314.2c0,0,8.9-26.8,34-26.9"/>
<path class="st7" d="M613.3,314.2c0,0,11.5-41.4,48.2-41.1"/>
<line class="st7" x1="352.5" y1="230.6" x2="661.5" y2="314.2"/>
<line class="st7" x1="352.5" y1="104.4" x2="661.5" y2="314.2"/>
<line class="st7" x1="661.5" y1="314.2" x2="499.9" y2="104.4"/>
<path class="st7" d="M599.1,314.2c0,0,10.4-55.4,62.4-55.3"/>
<path class="st7" d="M584.9,314.2c0,0,6.9-69.7,76.6-69.5"/>
<line class="st8" x1="624.5" y1="259.2" x2="628.3" y2="263"/>
<line class="st8" x1="624.5" y1="263" x2="628.3" y2="259.2"/>
<line class="st8" x1="615.5" y1="288.2" x2="619.3" y2="292"/>
<line class="st8" x1="615.5" y1="292" x2="619.3" y2="288.2"/>
<path class="st9" d="M874.7,117.4L874.7,117.4c-3.1,0-5.7,2.5-5.7,5.7v23.6c0,3.1,2.5,5.7,5.7,5.7l0,0c3.1,0,5.7-2.5,5.7-5.7v-23.6
	C880.4,120,877.8,117.4,874.7,117.4z"/>
<path class="st10" d="M41.1,38.8L41.1,38.8c-3.1,0-5.7,2.5-5.7,5.7v23.6c0,3.1,2.5,5.7,5.7,5.7l0,0c3.1,0,5.7-2.5,5.7-5.7V44.4
	C46.7,41.3,44.2,38.8,41.1,38.8z"/>
<path class="st11" d="M948.8,146.7h401.9c6.4,0,11.7-5.3,11.7-11.7l0,0c0-6.4-5.3-11.7-11.7-11.7H948.8c-6.4,0-11.7,5.3-11.7,11.7
	l0,0C937.1,141.4,942.4,146.7,948.8,146.7z"/>
<polyline class="st12" points="26.5,113.6 39.3,104.4 26.5,131.3 60.5,104.4 26.5,145.5 74.7,104.4 26.5,159.7 88.9,104.4 
	26.5,173.9 103,104.4 26.5,188 117.2,104.4 26.5,202.2 131.4,104.4 26.5,216.4 145.6,104.4 26.5,230.6 159.7,104.4 26.5,244.7 
	173.9,104.4 26.5,258.9 188.1,104.4 26.5,273.1 202.3,104.4 26.5,287.3 216.4,104.4 26.5,305 230.6,104.4 39.3,314.2 244.8,104.4 
	60.5,314.2 258.9,104.4 74.7,314.2 273.1,104.4 88.9,314.2 287.3,104.4 103,314.2 301.5,104.4 117.2,314.2 322.7,104.4 131.4,314.2 
	335.5,113.6 145.6,314.2 335.5,131.3 159.7,314.2 335.5,145.5 173.9,314.2 335.5,159.7 188.1,314.2 335.5,173.9 202.3,314.2 
	335.5,188 216.4,314.2 335.5,202.2 230.6,314.2 335.5,216.4 244.8,314.2 335.5,230.6 258.9,314.2 335.5,244.7 273.1,314.2 
	335.5,258.9 287.3,314.2 335.5,273.1 301.5,314.2 335.5,287.3 322.7,314.2 335.5,305 "/>
<path class="st13" d="M570.8,314.2c0,0,6.5-83.2,90.7-83.6"/>
<path class="st13" d="M556.6,314.2c0,0,5.5-97.4,104.9-97.8"/>
<path class="st14" d="M542.4,314.2c0,0,3.1-111.6,119.1-112"/>
<path class="st14" d="M528.3,314.2c0,0,1.4-125,133.2-126.2"/>
<path class="st14" d="M514.1,314.2c0,0,4.2-140.3,147.4-140.3"/>
<path class="st14" d="M499.9,314.2c0,0,1.4-154.5,161.6-154.5"/>
<path class="st14" d="M485.7,314.2c0,0-0.2-168.7,175.8-168.7"/>
<path class="st14" d="M471.6,314.2c0,0,1.3-182.9,189.9-182.9"/>
<path class="st14" d="M457.4,314.2"/>
<path class="st14" d="M352.5,113.6c0,0,12.8,3.2,12.8-9.2"/>
<path class="st14" d="M352.5,131.3"/>
<path class="st7" d="M386.5,104.4c0,0-8.9,26.8-34,26.9"/>
<path class="st7" d="M400.7,104.4c0,0-11.5,41.4-48.2,41.1"/>
<path class="st7" d="M414.9,104.4c0,0-10.4,55.4-62.4,55.3"/>
<path class="st7" d="M429.1,104.4c0,0-6.9,69.7-76.6,69.5"/>
<path class="st13" d="M443.2,104.4c0,0-6.5,83.2-90.7,83.6"/>
<path class="st13" d="M457.4,104.4c0,0-5.5,97.4-104.9,97.8"/>
<path class="st14" d="M471.6,104.4c0,0-3.1,111.6-119.1,112"/>
<path class="st14" d="M485.7,104.4c0,0-1.4,125-133.2,126.2"/>
<path class="st14" d="M499.9,104.4c0,0-4.2,140.3-147.4,140.3"/>
<path class="st14" d="M514.1,104.4c0,0-1.4,154.5-161.6,154.5"/>
<path class="st14" d="M528.3,104.4c0,0,0.2,168.7-175.8,168.7"/>
<path class="st14" d="M542.4,104.4c0,0-1.3,182.9-189.9,182.9"/>
<line class="st7" x1="661.5" y1="188.8" x2="352.5" y2="105.2"/>
<line class="st7" x1="352.5" y1="105.2" x2="514.1" y2="315"/>
<polyline class="st15" points="948.8,146.7 972.3,123.2 995.9,146.8 1019.4,123.3 1042.9,146.9 1066.7,123.2 1090.3,146.8 
	1113.9,123.2 1137.6,146.9 1161.6,123 1185.5,146.8 1209.1,123.2 1232.9,146.9 1256.5,123.3 1280.1,146.9 1303.8,123.2 
	1327.2,146.6 1350.6,123.1 "/>
</svg>
